<svg version="1.2" xmlns="http://www.w3.org/2000/svg" viewBox="0 0 800 800" width="800" height="800">
	<title>新建项目</title>
	<style>
		tspan { white-space:pre } 
		.s0 { fill: #000000 } 
	</style>
	<path id="L" fill-rule="evenodd" class="s0" d="m242.1 368l4.1-6.5q3.5-3.5 8.8-5.8 8.2-3.5 11.7-2.4 3.6 1.2 7.1 3 1.7 1.7 1.1 4.1-0.5 1.7 0.6 4.1-2.9 1.7-1.7 4.6 1.1 3 1.1 5.9 1.2 8.8 4.1 10 0 6.4 6.5 8.2 1.2 3.5 4.7 4.7 4.1 0.5 6.4 2.9 5.3 1.2 5.9 1.2 0.6 0 0.6 1.1 5.2 1.8 7 1.8 10.5 5.3 14.6 6.4 7.7 0.6 10 1.8 2.9 0.6 5.9 1.2 5.8 0.6 8.2 0.6 2.3-0.6 5.2-0.6 5.9 0 10 0 4.1 0 7.6-0.6 7.6-1.8 11.2-0.6 3.5 0.6 7-0.6 3.5-2.3 4.1-2.3 0.6 0 1.7-0.6 3-1.2 7.1-1.8 4.7-1.2 7.6-2.9 0.6-5.3 0.6-5.9 0-0.6-1.2-1.7 0.6-3 0.6-7.1 0.6-4.1 0.6-7 1.1-9.4-0.6-12.9 1.7-5.3 1.2-5.8-0.6-0.6-0.6-1.8 1.7-6.4 1.1-7.6-0.5-1.8-1.1-2.9 0.6-4.7 0.6-9.4 0.5-4.7 1.7-9.4-1.2-5.9-1.2-7 0.6-1.2 1.8-2.4-2.3-4.1-1.2-8.2 1.2-4.7 2.4-8.8 0-7.6 0.6-11.1 1.1-3.5 2.3-6.4 0-7.1 0-8.8 0-2.4 0.6-4.7 1.8-4.1 1.2-4.7-0.6-1.2-0.6-2.3 1.7-3.6 1.2-4.1-0.6-1.2-0.6-2.4 0-1.7 0.6-4.1 1.1-2.3 1.1-4.7-0.6-5.3 0.6-7.6 1.8-2.9 0-5.9 0.6-7 5.3-9.9 0-7 0.6-10 1.7-3.5 1.7-5.3 0-1.7 0.6-2.9 1.8-8.8 2.9-11.1 1.2-2.4 0-4.7 1.2-1.8 2.4-4.7 1.7-2.9 0-5.3 5.3-8.2 5.3-11.7 0.5-3.5 2.3-6.4 4.1-5.9 4.1-12.9 1.2-5.9 2.3-7.6 1.8-1.8-0.5-4.1 4.6-5.3 4.6-7.1 0-2.3 0.6-4.1 3-4.7 2.4-5.2 0-1.2 0.6-2.4 2.3-5.3 5.8-7.6-0.6-2.3 0-2.9 1.2-1.2 0.6-4.1 4.7-4.1 5.9-4.7 1.1-1.2 1.7-2.4 4.1-5.2 4.1-5.8 5.3-5.3 4.7-6.5 0-1.1 1.8-3.5 4.7-3.5 7.6-8.2 2.9-0.6 4.1-1.7 1.8-1.2 2.9-3 1.2-4.7 3-5.8 4.6-0.6 4.6-1.2 0-1.2 1.2-1.8 4.7-2.3 5.9-2.9 1.7-0.6 3.5-1.8 6.4-4.1 7.6-4.6 1.8-1.2 3.5-2.4 1.8-0.6 2.9-1.2 1.2-1.1 3-1.7 9.4-3.5 15.2-6.5 4.1-1.7 4.7-1.1 1.2 0 1.8-0.6 6.4-1.2 8.2-2.9 4.1 1.1 5.8 1.1 2.4-0.6 5.9-1.1 1.7-0.6 2.9 0 1.2 0 4.7 0 1.8 0.5 3.5 0.5 1.8-0.5 2.9-0.5 5.9 1.7 6.5 2.3 1.2 0 5.8 1.8 5.9 0 6.5 0.5 1.2 0 4.1-0.5 1.2 1.1 2.9 2.3 1.8 1.2 3.5 2.3 5.9 3 7.1 6.5 1.7 2.9 8.2 4.7 0 1.7 1.1 2.9 1.8 1.2 3 2.3 5.8 3.6 5.8 4.1 0 0.6 1.2 1.8 2.9 5.3 4.1 5.3 1.2 0 2.4 0.6 1.1 4.7 2.9 7.6 2.3 2.9 1.7 7.6 3.6 4.1 3.6 5.9 0.5 1.7 2.3 2.3 1.2 5.9 0 9.4-1.2 3.5 1.2 6.4-1.2 2.4-1.2 3.5 0 1.2-0.6 3 1.8 7.6 0.6 8.8-1.2 0.5-2.3 2.3 1.1 8.2 3.5 11.7-1.2 2.4-2.4 4.1-0.6 1.8 0.6 3.5-1.7 3.6-2.9 7.7-1.2 3.5 0 7.6-2.9 1.1-3.5 4.7 0 2.9-3 4.6 0.6 3-0.5 4.1-0.6 1.2 0 3.6-2.4 7-3 9.3-0.6 1.8-2.3 3-2.4 5.2-1.2 7 1.2 1.8 0.6 2.9-5.3 7.6-6.5 15.3-4.1 4.7-4.1 5.2 0 0 0 2.4-1.1 1.7-2.3 3.5-0.6 1.2-1.8 2.9-1.1 1.2-1.7 3-0.6 1.7-3.5 2.3-0.6 2.9-4.1 6.4-0.6 3.6-0.6 5.3 0 1.8-1.8 1.2-0.6 7.6-1.7 8.8-0.6 0.6-0.6 2.3-3.5 1.8-4.7 6.5-4.1 2.3-6.5 6.4-1.7 3.5-5.2 5.9-2.4 7.6-5.3 8.2-1.2 1.7-2.9 3.5-1.2 1.2-0.6 4.1-2.4 0-2.9 1.8-0.6 1.1-1.8 2.9-1.2 1.2-2.9 2.9-1.2 1.8-3.5 2.4-0.6 4.1-2.4 4.6-1.7 0.6-2.9 1.8 0 2.9-1.8 4.1-1.7 1.2-2.3 4.1-4.7 1.8-8.2 4.1-3.5 2.3-7.1 5.3-3.5 6.4-6.4 8.2-2.9 1.7-4.1 4.7-7 5.2-10 6.4-2.9 1.2-4.1 5.3-7 1.7-7.6 2.9 0 1.2-1.2 2.4-3.5 1.1-5.8 2.9-1.8 1.7-4.1 4.1-2.9 0.6-4.7 2.3-1.8 1.2-2.9 2.4-6.5 1.2-7.1 4.7-4.1 0.6-6.4 2.3-1.8 1.8-4.1 3.5-8.2 0.6-11.7 6.5-5.9 1.7-8.8 4.7-5.9 2.3-8.8 4.6-2.9 1.8-7.6 3 1.1 5.3 0 7-0.6 1.8-1.2 3.5-0.6 3-0.6 5.3 0.6 2.3-0.6 4.7 0 6.4-1.7 6.4-1.2 0-1.2 1.2 1.8 5.9 0.6 7.6-0.6 1.2-1.8 2.4 0 2.3 1.2 4.1 1.2 1.7 0 4.1-1.8 3.5-1.2 5.8 1.2 1.8-0.6 3.5 0.6 8.2-0.5 10.6-1.2 1.7-1.8 4.1 2.3 4.1 0.6 5.8-1.2 1.2-1.2 2.4-1.7 4.7-1.7 7.6 0.5 2.9-0.6 5.9-1.8 7-3.5 8.8-1.8 7-2.4 8.7 0 1.8 1.2 1.8-2.9 1.2-2.9 4.1 0 2.4-2.4 4.1 0 4.1-0.6 5.3-0.6 0.6-1.7 1.7 0.6 4.7-0.6 5.3-1.2 0-2.4 0.6-1.7 7-2.9 7.6-1.2 0.6-2.3 1.8 1.1 3.5-0.6 6.4-1.8 2.9 0 6.5-2.4 1.1-3 4.1 0 2.3-2.3 3.5 1.2 4.7-1.2 7-2.3 2.4-3.5 5.3 2.9 0.6 0 2.3-2.3 1.8-1.7 4.7 0.5 7 2.3 7 3.5 4.2 2.9 4.7 0 0.6 0.6 1.2 1.8 1.2 3.5 2.9 1.8 1.8 3 4.1 4.7 5.9 4.7 5.9 4.6 5.9 5.2 5.9 1.8 1.7 5.3 3.5 3.5 1.1 5.9 2.9 0 5.9 4.6 7 0 3 2.4 4.7 2.3 1.2 4.1 2.4 1.7 2.9 4.1 5.2 0.6 0.6 1.2 2.4 1.1 1.2 1.7 3.5 3 2.3 5.3 5.3 2.9 2.3 4.1 5.8 6.4 6.5 8.2 7.6 1.2 1.2 1.8 3 0.5 1.7 3.5 1.7-0.6 1.8 0.6 3 1.7 1.1 2.9 3.5 1.7 2.3 2.9 4.7 1.8 1.7 5.9 2.9 2.9 5.3 4.7 5.9 2.3 5.2 2.3 5.8 0.6 0.6 1.2 1.2 4.1 4.1 4.7 5.3 1.1 1.1 2.9 0.5 3.5 3 4.1 4.2 0.6 1.1 2.9 0.5 4.1 7.7 8.2 7.7 3.5 4.1 5.9 5.8 2.3 1.2 6.4 1.8 0.6 4.1 8.8 4.1 1.2 2.9 4.1 4.1 3.5 1.1 6.5 2.9 7 0 7 1.8 2.3-0.6 3.5 0.5 1.8 1.2 3.5 1.2 3 1.2 5.9 1.2 2.9-0.6 5.9 0.6 9.9-0.6 15.2-0.6 5.3 0 9.4-2.9 3.5 0 6.4-0.6 3.5-1.2 5.3-4.1 4.1-0.6 5.8-0.6 2.4-0.6 4.1-1.8 10.6-5.2 14.1-9.9 2.9 0.6 4.1 0 1.2-1.2 2.4-1.2 0 5.9-1.2 5.9-0.6-0.6-1.8 0.5-5.3 4.7-8.2 6.5-2.3 1.2-6.4 1.7-1.2 1.8-2.4 3.6-0.6 1.1-2.9 1.7 0.6 2.9-1.2 4.1-1.1 0.6-2.3 2.4-5.9 0-7 2.3-7.7 1.2-10 1.2-2.9 0.6-4.7 1.7-1.2 1.2-2.9 3-8.2 2.9-12.3 1.7-3.5-1.1-8.2 0.6-3-1.2-5.3 0-2.4 1.2-5.3 1.8-5.8-0.6-6.4-1.2 0-1.2-1.2-2.3-5.9 0.5-7 1.7-0.6 0.6-3 0.6-7-0.6-9.3-2.3-1.8-1.8-3.5 1.1-5.9-1.1-9.4-3.5-5.3 1.2-11.2 0-5.8-1.7-8.2-5.8-2.9 0.5-4.6 0-1.2-0.6-3-1.2l-8.8-1.8q-1.1-2.3-4.1-3.5-2.3-1.2-4.7-2.3-2.9-3.6-4.1-4.1-1.1-0.6-0.5-1.8-3.6-0.6-5.3-2.3-1.8-2.4-4.7-3-7.6-5.8-9.4-8.2-1.2-2.3-4.1-5.2-1.2-1.2-2.3-2.4-1.2-1.2-3.5-1.7-2.4-7.1-3.6-7.1-0.5 0-1.7-1.2-2.4-4.6-4.7-6.4-2.3-3.5-3.5-5.3-1.2-1.7-2.4-2.9-2.3-1.2-4.1-3.5-1.1-2.4-4.1-3.5l-2.9-11.2q-3.5 1.2-4.7-1.7-0.6-3-4.1-4.1-1.2-4.7-4.7-6.5-3.5-1.7-4.7-6.4-2.9-2.4-4.6-4.7-1.8-2.9-5.3-4.7 0-2.9-2.9-3.5-3-1.2-4.1-3.5-1.2-2.4-3-5.3-1.7-3.5-4.7-4.7-3.5 1.2-5.2 4.7-1.2 2.9-5.3 3.5-8.2 4.7-12.3 9.4-4.1 4.7-7 7.6-7.7 3.5-11.2 4.1-2.3 1.2-3.5 2.9-0.6 1.8-4.7 1.8-5.8 4.1-4.7 4.7 1.2 0 0 0.6-2.9 1.1-4.7 1.7-1.7 0-4.6 0.6-5.9 3.5-7.1 4.1-0.6 0.6-1.7 1.2-4.7-1.2-7.1 0.6-2.3 1.2-4.7 2.9-2.9-0.6-4.6 0.6-1.8 0.6-3 1.8-7 3.5-8.8 4.6-1.7 1.2-5.2 1.2-8.8 1.8-9.4 0.6-0.6-1.8-4.1 0.6-2.9-1.2-7-0.6-4.1 0.6-5.9-1.2-3.5 2.4-10 2.4-6.4-0.6-10.5 1.1l-7.6-1.7q-1.2-2.4-4.7-2.4-2.9-0.5-4.1-2.9-4.7 0-6.5-0.6-1.1-0.6-2.9-1.7-7-2.4-9.4-3-2.3-0.5-5.2-0.5-4.7-3.6-6.5-4.2-1.7-1.1-4.1-2.3-7-2.9-9.9-4.7-2.4-2.3-2.4-5.3-5.3-3.5-6.4-4.1-1.2-1.1-2.4-2.9-1.2-3.5-1.7-4.7-0.6-1.1-1.8-2.3-2.9-6.5-3.5-6.5-0.6-0.5-1.2-1.7-0.6-5.9-1.2-5.9-0.5-0.6-0.5-1.2 0-7 0.5-7.6 0.6-0.6 0.6-1.7 2.4-8.2-2.9-11.7 3.5-4.7 5.9-6.5-1.2-2.9-0.6-4.1 1.1-1.8 1.1-4.7 1.8-5.8 4.1-9.4l4.1-7q4.7-7 7.7-8.8 3.5-2.3 4.7-6.4 4.1-4.7 4.6-5.9 1.2-1.2 2.4-1.2 4.7-1.7 4.7-2.9 0-1.7 1.7-1.2 4.1-2.3 4.7-2.9 0.6-1.2 2.4-1.2 5.8-3.5 7.6-5.2 2.3-1.8 5.3-3 4.6-2.9 6.4-4.1 2.3-1.7 4.1-2.9c1.6-0.8 9.8-4.9 10.5-5.3q1.8-0.5 4.1-1.7 5.9-1.8 7.1-1.8 1.2 0 2.3-0.6 4.7-2.3 5.9-1.7 1.2 0 1.2-1.2 1.1 0.6 4.1 0.6 2.9 0 5.2 0 8.2-1.2 10.6 1.2 2.9 1.7 5.2 0.5 7.7-0.5 8.8 1.8 5.3-1.2 9.4 0.6 4.1 1.2 9.4 0.6 6.4 2.9 8.2 3.5 1.7 0.6 2.9 1.2 2.4 1.1 3.5 2.9 1.8 1.2 4.1 1.8 2.4 1.1 3.6 2.3 1.7 1.2 4.1 1.2 6.4 2.3 7.6 3.5 1.7 1.2 4.7 1.7 2.9 2.4 4.6 3 2.4 0 4.1 0 7.1 7 15.3 8.8 0.6 4.6 3.5 8.2 3.5 2.9 8.2 4.1 5.9 3.5 7 0.6 1.8-3.6 3-5.9 1.1-2.9 1.7-4.1 1.2-1.2 1.2-2.4 2.3-7.6 2.9-8.2 0.6-1.1 0.6-4.1 1.2 0 2.4-2.3 1.1-2.3 2.3-2.9-1.2-3 0-7.1 1.2-4.6 1.8-7.6 2.3-8.8 2.3-11.7 0-2.9 2.3-5.3-1.1-2.3 0-7.6 1.8-4.1 1.2-4.7 0-0.6 0.6-1.7 2.9-5.3 2.3-8.8 3.6-8.8 3-12.9 0-4.7 1.7-10-1.1-5.2-0.6-7 0.6-1.8-0.5-2.9 1.1-7.1 2.3-10 1.2-3.5 1.2-7.6-1.8-1.2-4.7 0.6-2.9 1.7-5.9 0.6-5.2 2.3-7.6 2.3-2.3 0-4.1 0.6-2.9 0.6-6.4 1.2-3.6 0.5-4.1 1.7-3.6 0.6-6.5 1.2-2.9 0.6-4.7 1.7-9.9-1.1-12.9-0.5-2.9 0-8.8 0-8.2 2.3-9.3 1.7-0.6-1.2-2.4-1.7-6.4 1.1-7.6 2.3l-7.6-2.9q-2.3 0-4.7 0-2.3-0.6-3.5 0.6-4.1-2.4-7-1.8-3 0-5.9-2.3-2.9 0.5-5.3 0-1.7-1.2-4.7-0.6l-9.9-3-5.9-3.5q-9.4-2.9-11.1-5.8-6.5-2.4-7.6-2.4-0.6 0-1.2-0.6-2.9-4.6-4.1-5.2-0.6-0.6-1.2-1.2-1.7-7-2.3-6.5-0.6 0-1.2-0.5-1.7-4.7-2.9-4.7-1.2-0.6-1.8-1.8 1.2-4.7-0.6-7.6-1.1-2.9 1.8-7.6-2.3-1.8-1.8-4.7 0.6-3.5 0.6-6.4 4.1 0 4.7-1.8 0.6-2.4 3.5-3.5zm369.2-180.5q0-2.9 1.1-4.7 1.2-2.3 0.6-7 3-9.4 5.9-16.4-1.8-2.9-1.2-4.7 0.6-1.8 1.8-4.7 0-4.7 0-7 0-3-0.6-5.3-1.8-4.1-1.2-5.9 1.2-1.7 1.2-4.1-0.6-5.8-1.8-6.4-0.6-1.2-0.6-2.3-2.3-7.7-1.1-13.5-1.8-1.8-3-4.7-0.5-2.9-1.1-5.3-0.6-2.9-2.4-5.3-1.1-2.3-4.1-2.9-5.3-6.4-7-7-1.8-0.6-2.9-2.4-2.4-2.3-4.7-1.7-1.8 0-3-1.2-6.4-2.9-7-3.5-0.6-0.6-2.3 0-7.6-4.7-13.5-5.9-7 1.2-7.6 0 0-1.7-1.8-1.1-2.9 2.9-5.8 3.5-2.4 0-3.6 1.7-2.3-1.1-4.1 0-1.1 1.2-4.1 0.6-2.3 1.8-4.6 4.1-2.4 1.8-7.1 2.4 1.2 2.9-1.2 2.9-2.3 0-2.9 2.3-4.7 5.3-7 6.5 0.6 1.7-0.6 3.5-1.2 1.2-2.3 2.9-1.2 1.2-1.8 2.4-0.6 1.1 1.2 2.9-4.7 1.8-6.5 5.9-1.7 4.1-5.2 7-3 8.2-3.6 11.7-0.5 3.5-2.3 7 1.2 3.6-0.6 5.3-1.2 1.8 0 4.7-3.5 2.9-4.7 9.4-0.6 1.2-1.7 2.9-1.2 1.8-1.8 2.9-0.6 7.1 0.6 7.1 1.2-0.6 0.6 0.6-1.8 5.2-4.1 6.4-1.8 1.2-2.4 4.1-1.1 5.9-1.7 8.8 0 2.3-3 3.5 0 4.7 0 8.2 0 2.9-1.1 4.7-1.2 2.3-1.8 5.3-0.6 2.9 0.6 5.8-3.5 3.5-2.9 4.7 0.6 1.2 0.6 2.4-1.2 5.2-2.4 6.4-0.6 2.9 0 7-1.2 2.4-2.3 3.6-0.6 1.1-0.6 2.3-0.6 7-0.6 11.1 0.6 4.1-0.6 8.2-0.6 1.8-1.7 3.6-0.6 1.7-0.6 3.5 1.1 4.1 0 7-0.6 2.9-0.6 4.1-0.6 5.3-0.6 7.6 0.6 1.8 0.6 2.9-1.2 5.3-2.4 5.9-0.5 0.6 0 1.8-1.1 5.8-1.7 7.6-0.6 6.4 0 7.6 1.2 0.6 1.2 1.8-1.2 4.1-0.6 5.2 0.6 1.2 0.6 2.4-3 4.7-2.4 7 0.6 1.8 0.6 4.7 0 2.9-0.6 6.4-0.6 3.6-0.6 7.1-0.6 2.9 0 5.8 0.6 3-1.2 5.9 1.2 7 0 7.6-0.5 0.6-1.1 1.8 0 4.1 0.6 5.2 1.1 0.6 1.7 1.8-0.6 6.4-1.7 7.6-0.6 1.2 0.5 2.4 4.2 0.5 8.3-3.6 2.3-1.1 4.1-2.3 1.7-1.2 4.1-1.8 2.9-3.5 3.5-4.1 1.1-0.6 2.3-1.1l6.5-1.8q1.1-1.8 2.3-2.3 1.8-1.2 2.3-3 1.8-0.6 2.4-1.7 1.2-1.2 3.5-1.8 4.1-4.1 5.9-5.8 1.7-1.8 4.7-3 3.5-4.1 5.2-5.2 2.4-1.8 5.3-3 4.1-5.8 5.3-5.8 1.1 0 2.3-0.6 5.3-4.1 5.3-4.7 0.6-1.2 1.2-1.8 4.1-4.7 6.4-4.7 2.4-3.5 3.5-4.1 1.2-1.1 2.4-2.3-0.6-2.9 0-4.1 1.1-1.2 1.7-3.5 3.5-5.3 5.9-6.5 2.3-1.7 1.7-5.2 3-1.2 3-3 0.6-1.7 1.7-3.5 5.9-7.6 10-10.5 1.2-5.3 4.1-7.6 3.5-3 4.1-7.7 5.3-2.9 6.4-8.2 1.8-5.2 4.7-9.9 3.5-5.3 3.5-5.9 0.6-1.2 1.8-1.2 2.9-5.8 2.9-8.2 0-2.9 0-1.7 4.7-7.6 5.3-10.6 1.2-2.9 2.3-4.1 2.4-2.9 3-4.1 1.1-1.7 0-4.1 0.6-1.1 1.7-2.3 1.2-1.8 2.4-2.9 1.2-5.9 1.7-6.5 0.6-0.6 1.2-1.7 1.2-5.3 1.8-6.5zm-276.6 433l8.2-8.2 5.3-7q0-2.9 2.9-2.9 2.9-0.6 1.8-3.6-7.1-4.7-7.6-5.2-0.6-0.6-1.8-0.6-0.6-0.6-1.2-0.6-0.6-0.6-1.7-2.9-4.7-2.4-8.2-5.3-3.6-2.9-7.7-6.5-1.7-2.9-2.9-2.3-1.2 0-2.9-1.2-1.8-1.7-4.7-2.9-2.3-1.8-4.1-4.1-5.3-2.9-8.2-4.7-7.6-3.5-12.3-4.7-7.6-5.3-8.2-6.4-5.3-0.6-10-1.2-4.1-0.6-7.6-1.2-7-2.3-9.4-1.7-1.7 0-4.7 0-4.1-0.6-7.6-0.6-3.5-0.6-6.4-0.6-3.5 0-7.6 1.2-3.6 1.1-6.5 0-1.7 0.6-2.9 1.1-1.2 0.6-2.9 1.8-6.5 1.2-6.5 1.8 0 0.5-1.2 1.1-4.1 3.5-6.4 5.3-1.8 1.2-3.5 2.3-4.7 5.3-5.9 6.5-0.6 1.2-1.7 1.8-2.4 6.4-3.6 7.6 0 5.2-0.5 5.8-0.6 0-0.6 1.2-0.6 1.8-0.6 4.1 0.6 2.3 0.6 4.7-1.8 8.2-1.8 8.2 2.4 7 0.6 7.6-1.2 0.6-0.6 2.4 1.2 1.7 1.8 4.1 1.1 2.3 0 4.1 7.6 5.8 7.6 9.9 2.9 1.8 5.3 3.5 2.3 1.8 5.2 3 6.5 4.1 7.7 4.7 1.1 0.5 1.7 1.7 9.4 4.1 14.1 6.5 4.7 1.7 11.1 0.5l6.5-1.1q1.1 0.6 3.5 0 2.3-0.6 4.7-0.6 5.2 0.6 8.7-0.6 7.1-0.6 10 0 2.9 0 6.5-0.6 9.9-2.3 14-4.1 7-1.7 7.6-2.3 0.6-0.6 1.8-1.2 8.2-2.3 10-4.1 1.7-1.8 4.1-2.9 4.6-1.8 4.6-3 0.6-1.1 1.8-1.7 4.7-0.6 7-2.4 2.4-1.7 5.3-3.5z"/>
</svg>